<svg width="161" height="45" viewBox="0 0 161 45" fill="none" xmlns="http://www.w3.org/2000/svg">
<path d="M23.3989 39.9248C32.9693 39.9248 40.7276 32.1665 40.7276 22.5962C40.7276 13.0259 32.9693 5.26758 23.3989 5.26758C13.8286 5.26758 6.07031 13.0259 6.07031 22.5962C6.07031 32.1665 13.8286 39.9248 23.3989 39.9248Z" stroke="#52C19A" stroke-width="5"/>
<path fill-rule="evenodd" clip-rule="evenodd" d="M16.1716 13.896C15.6718 13.896 15.1774 13.9192 14.6894 13.9645V14.5969L14.6893 31.1447H19.3248V18.9259C23.9968 20.2889 27.41 24.6039 27.41 29.716C27.41 30.2186 27.3771 30.7134 27.3132 31.1985H31.9232C31.9686 30.7104 31.9918 30.2159 31.9918 29.7161C31.9918 20.9789 24.9088 13.896 16.1716 13.896ZM0.351592 29.7472V29.6851L0.351562 29.7161L0.351592 29.7472Z" fill="white"/>
<path fill-rule="evenodd" clip-rule="evenodd" d="M23.8667 0C24.436 0 25.0005 0.0210598 25.5593 0.0624429V24.2871V5.4552C25.0024 5.40087 24.4377 5.37306 23.8667 5.37306C14.3553 5.37306 6.64488 13.0835 6.64488 22.5949C6.64488 23.1658 6.67267 23.7303 6.72698 24.2871H1.33388C1.29253 23.7285 1.27148 23.1643 1.27148 22.5952C1.27148 10.1162 11.3877 0 23.8667 0Z" fill="#52C19A"/>
<path fill-rule="evenodd" clip-rule="evenodd" d="M23.8667 45C24.436 45 25.0005 44.9789 25.5593 44.9375V20.7129V39.5449C25.0024 39.5991 24.4377 39.6269 23.8667 39.6269C14.3553 39.6269 6.64488 31.9164 6.64488 22.4052C6.64488 21.8341 6.67267 21.2696 6.72698 20.7129H1.33388C1.29253 21.2715 1.27148 21.8357 1.27148 22.4048C1.27148 34.8839 11.3877 45 23.8667 45Z" fill="#52C19A"/>
<path d="M43.9961 23.4463C43.9961 21.933 44.3447 20.5758 45.042 19.3741C45.7539 18.1724 46.7108 17.2379 47.9125 16.5703C49.1289 15.8879 50.4567 15.5467 51.8957 15.5467C53.5424 15.5467 55.0036 15.9546 56.2793 16.7706C57.57 17.5717 58.5047 18.7139 59.0832 20.1974H56.0346C55.634 19.3815 55.0778 18.7733 54.3657 18.3727C53.6536 17.9722 52.8303 17.7719 51.8957 17.7719C50.872 17.7719 49.9598 18.0019 49.1587 18.4617C48.3575 18.9216 47.7271 19.5818 47.2672 20.4423C46.8221 21.3026 46.5995 22.304 46.5995 23.4463C46.5995 24.5886 46.8221 25.59 47.2672 26.4503C47.7271 27.3108 48.3575 27.9784 49.1587 28.4531C49.9598 28.913 50.872 29.1429 51.8957 29.1429C52.8303 29.1429 53.6536 28.9426 54.3657 28.542C55.0778 28.1415 55.634 27.5334 56.0346 26.7174H59.0832C58.5047 28.2009 57.57 29.3431 56.2793 30.1443C55.0036 30.9454 53.5424 31.3459 51.8957 31.3459C50.4418 31.3459 49.1142 31.0122 47.9125 30.3445C46.7108 29.6622 45.7539 28.7202 45.042 27.5185C44.3447 26.3168 43.9961 24.9594 43.9961 23.4463ZM66.4807 31.4126C65.3236 31.4126 64.2777 31.1531 63.3431 30.6338C62.4085 30.0998 61.6742 29.358 61.1402 28.4086C60.606 27.4442 60.3391 26.3317 60.3391 25.0707C60.3391 23.8245 60.6135 22.7194 61.1624 21.7551C61.7113 20.7908 62.4605 20.049 63.4099 19.5299C64.3594 19.0106 65.42 18.7511 66.592 18.7511C67.7639 18.7511 68.8247 19.0106 69.7742 19.5299C70.7234 20.049 71.4726 20.7908 72.0215 21.7551C72.5704 22.7194 72.845 23.8245 72.845 25.0707C72.845 26.3168 72.563 27.4221 71.9994 28.3862C71.4356 29.3506 70.6642 30.0998 69.685 30.6338C68.7208 31.1531 67.6526 31.4126 66.4807 31.4126ZM66.4807 29.2097C67.1335 29.2097 67.7416 29.0539 68.3054 28.7423C68.8839 28.4309 69.3513 27.9635 69.7073 27.3404C70.0634 26.7174 70.2413 25.9608 70.2413 25.0707C70.2413 24.1806 70.0708 23.4314 69.7295 22.8233C69.3883 22.2001 68.9358 21.7329 68.3722 21.4214C67.8084 21.1098 67.2001 20.954 66.5476 20.954C65.8948 20.954 65.2865 21.1098 64.7227 21.4214C64.1738 21.7329 63.7362 22.2001 63.4099 22.8233C63.0835 23.4314 62.9204 24.1806 62.9204 25.0707C62.9204 26.3911 63.2541 27.4146 63.9216 28.1415C64.6042 28.8536 65.4572 29.2097 66.4807 29.2097ZM73.617 25.0262C73.617 23.7949 73.8692 22.7046 74.3735 21.7551C74.8928 20.8056 75.59 20.0713 76.4652 19.552C77.3553 19.018 78.3418 18.7511 79.4249 18.7511C80.226 18.7511 81.0122 18.9291 81.7836 19.2851C82.5698 19.6263 83.1929 20.0862 83.6527 20.6647V14.7456H86.2118V31.2123H83.6527V29.3655C83.2374 29.9589 82.6587 30.4484 81.917 30.8341C81.1902 31.2197 80.352 31.4126 79.4026 31.4126C78.3345 31.4126 77.3553 31.1456 76.4652 30.6116C75.59 30.0627 74.8928 29.3061 74.3735 28.3418C73.8692 27.3627 73.617 26.2574 73.617 25.0262ZM83.6527 25.0707C83.6527 24.2251 83.4748 23.4908 83.1187 22.8678C82.7775 22.2446 82.325 21.77 81.7614 21.4435C81.1976 21.1172 80.5893 20.954 79.9366 20.954C79.2838 20.954 78.6757 21.1172 78.1119 21.4435C77.5481 21.7551 77.0884 22.2225 76.7323 22.8455C76.3911 23.4537 76.2204 24.1806 76.2204 25.0262C76.2204 25.8718 76.3911 26.6135 76.7323 27.2514C77.0884 27.8893 77.5481 28.379 78.1119 28.7202C78.6904 29.0465 79.2987 29.2097 79.9366 29.2097C80.5893 29.2097 81.1976 29.0465 81.7614 28.7202C82.325 28.3937 82.7775 27.919 83.1187 27.2959C83.4748 26.658 83.6527 25.9163 83.6527 25.0707ZM99.8911 24.7814C99.8911 25.2413 99.8614 25.6566 99.8022 26.0276H90.4338C90.508 27.0066 90.8714 27.7929 91.5241 28.3862C92.1769 28.9796 92.978 29.2763 93.9275 29.2763C95.2922 29.2763 96.2565 28.7053 96.8203 27.563H99.5572C99.1865 28.6904 98.5115 29.6177 97.5323 30.3445C96.5681 31.0567 95.3665 31.4126 93.9275 31.4126C92.7556 31.4126 91.7023 31.1531 90.7677 30.6338C89.8478 30.0998 89.121 29.358 88.587 28.4086C88.0677 27.4442 87.808 26.3317 87.808 25.0707C87.808 23.8098 88.0602 22.7046 88.5646 21.7551C89.0839 20.7908 89.8033 20.049 90.723 19.5299C91.6578 19.0106 92.7258 18.7511 93.9275 18.7511C95.0847 18.7511 96.1157 19.0033 97.0206 19.5076C97.9254 20.012 98.6301 20.7241 99.1345 21.6438C99.6389 22.5488 99.8911 23.5946 99.8911 24.7814ZM97.2431 23.9803C97.2282 23.0457 96.8944 22.2966 96.2417 21.7329C95.5889 21.1692 94.7805 20.8873 93.8162 20.8873C92.941 20.8873 92.1918 21.1692 91.5686 21.7329C90.9456 22.2817 90.5747 23.0308 90.4561 23.9803H97.2431Z" fill="white"/>
<path d="M106.843 18.84C108.297 18.84 109.484 19.2925 110.404 20.1973C111.323 21.0876 111.783 22.3855 111.783 24.0915V31.2122H110.248V24.2695C110.248 22.9493 109.914 21.9404 109.246 21.2432C108.594 20.5459 107.696 20.1973 106.554 20.1973C105.382 20.1973 104.447 20.5683 103.75 21.31C103.053 22.0517 102.704 23.1421 102.704 24.5811V31.2122H101.146V19.0624H102.704V21.132C103.09 20.3903 103.646 19.8265 104.373 19.4409C105.1 19.0403 105.923 18.84 106.843 18.84ZM113.626 25.1151C113.626 23.8689 113.871 22.7786 114.36 21.844C114.865 20.8945 115.554 20.1677 116.43 19.6633C117.32 19.1442 118.321 18.8845 119.434 18.8845C120.591 18.8845 121.585 19.1516 122.416 19.6856C123.261 20.2196 123.869 20.902 124.24 21.7329V19.0624H125.798V31.2122H124.24V28.5198C123.855 29.3505 123.239 30.0403 122.393 30.5892C121.563 31.1232 120.569 31.3903 119.412 31.3903C118.314 31.3903 117.32 31.1307 116.43 30.6116C115.554 30.0923 114.865 29.358 114.36 28.4085C113.871 27.4591 113.626 26.3612 113.626 25.1151ZM124.24 25.1374C124.24 24.1584 124.04 23.2979 123.639 22.5561C123.239 21.8144 122.69 21.2432 121.993 20.8426C121.31 20.4422 120.554 20.242 119.723 20.242C118.863 20.242 118.091 20.4348 117.409 20.8205C116.727 21.2061 116.185 21.7699 115.784 22.5117C115.399 23.2385 115.206 24.1064 115.206 25.1151C115.206 26.109 115.399 26.9844 115.784 27.7409C116.185 28.4826 116.727 29.0538 117.409 29.4544C118.091 29.8401 118.863 30.0329 119.723 30.0329C120.554 30.0329 121.31 29.8326 121.993 29.4321C122.69 29.0315 123.239 28.4604 123.639 27.7187C124.04 26.977 124.24 26.1165 124.24 25.1374ZM132.647 31.3903C131.253 31.3903 130.111 31.0713 129.22 30.4334C128.345 29.7807 127.856 28.898 127.752 27.7855H129.354C129.428 28.4679 129.747 29.0242 130.311 29.4544C130.89 29.8698 131.661 30.0774 132.625 30.0774C133.471 30.0774 134.131 29.8771 134.606 29.4765C135.095 29.0762 135.34 28.5792 135.34 27.9856C135.34 27.5704 135.206 27.2292 134.939 26.9621C134.672 26.6952 134.331 26.4874 133.916 26.3391C133.515 26.1759 132.966 26.0052 132.269 25.8272C131.364 25.5899 130.63 25.3526 130.066 25.1151C129.502 24.8778 129.02 24.5291 128.62 24.0692C128.234 23.5946 128.041 22.9641 128.041 22.1779C128.041 21.5844 128.219 21.0356 128.575 20.5312C128.931 20.0268 129.436 19.6262 130.088 19.3295C130.741 19.0329 131.483 18.8845 132.314 18.8845C133.619 18.8845 134.672 19.2182 135.473 19.8859C136.274 20.5387 136.705 21.4435 136.764 22.6006H135.206C135.162 21.8885 134.88 21.3174 134.361 20.8873C133.856 20.4422 133.159 20.2196 132.269 20.2196C131.483 20.2196 130.845 20.405 130.355 20.776C129.866 21.1468 129.621 21.6067 129.621 22.1556C129.621 22.6302 129.762 23.0233 130.044 23.3349C130.341 23.6316 130.704 23.8689 131.134 24.0471C131.564 24.2103 132.143 24.3957 132.87 24.6034C133.745 24.8407 134.442 25.0706 134.962 25.2932C135.481 25.5156 135.926 25.8421 136.297 26.2723C136.668 26.7024 136.86 27.2737 136.875 27.9856C136.875 28.6384 136.697 29.2245 136.341 29.7436C135.985 30.2481 135.488 30.6486 134.85 30.9453C134.213 31.242 133.478 31.3903 132.647 31.3903ZM140.942 20.3754V27.919C140.942 28.6607 141.083 29.1726 141.365 29.4544C141.647 29.7362 142.144 29.8771 142.856 29.8771H144.28V31.2122H142.611C141.513 31.2122 140.698 30.9602 140.163 30.4558C139.629 29.9365 139.362 29.0909 139.362 27.919V20.3754H137.671V19.0624H139.362V16.0139H140.942V19.0624H144.28V20.3754H140.942ZM146.738 16.7705C146.426 16.7705 146.159 16.6592 145.937 16.4367C145.714 16.2142 145.603 15.9398 145.603 15.6134C145.603 15.287 145.714 15.02 145.937 14.8123C146.159 14.5898 146.426 14.4785 146.738 14.4785C147.049 14.4785 147.316 14.5898 147.539 14.8123C147.761 15.02 147.873 15.287 147.873 15.6134C147.873 15.9398 147.761 16.2142 147.539 16.4367C147.316 16.6592 147.049 16.7705 146.738 16.7705ZM147.517 19.0624V31.2122H145.959V19.0624H147.517ZM149.442 25.1374C149.442 23.8764 149.694 22.7786 150.198 21.844C150.703 20.8945 151.4 20.1677 152.29 19.6633C153.18 19.1442 154.197 18.8845 155.339 18.8845C156.837 18.8845 158.068 19.2553 159.033 19.997C160.012 20.7389 160.642 21.7476 160.924 23.0233H159.255C159.048 22.1481 158.595 21.4658 157.898 20.9763C157.215 20.4718 156.362 20.2196 155.339 20.2196C154.523 20.2196 153.789 20.405 153.136 20.776C152.483 21.1468 151.964 21.7031 151.578 22.4448C151.207 23.1719 151.022 24.0692 151.022 25.1374C151.022 26.2055 151.207 27.1104 151.578 27.8522C151.964 28.5939 152.483 29.1502 153.136 29.5212C153.789 29.892 154.523 30.0774 155.339 30.0774C156.362 30.0774 157.215 29.8326 157.898 29.3431C158.595 28.8387 159.048 28.1414 159.255 27.2513H160.924C160.642 28.4975 160.012 29.4989 159.033 30.2555C158.054 31.0121 156.822 31.3903 155.339 31.3903C154.197 31.3903 153.18 31.1381 152.29 30.6337C151.4 30.1146 150.703 29.3876 150.198 28.453C149.694 27.5035 149.442 26.3983 149.442 25.1374Z" fill="white"/>
</svg>
